# xmcd CD database file generated by Grip 2.91
# 
# Track frame offsets:
#       150
#       14880
#       31745
#       48022
#       62135
#       78095
#       95130
#       119272
#       138620
#       154407
#       169002
#       183775
#       207637
#       225225
# 
# Disc length: 3158 seconds
# 
# Revision: 3
# Processed by: cddbd v1.4b41PL1 Copyright (c) Steve Scherf et al.
# Submitted via: Grip 2.91
# 
DISCID=b70c540e
DTITLE=Kingfish - Live At My Father's Place - A Night In New York
DYEAR=1900
DGENRE=
TTITLE0=Overnight Bag
TTITLE1=Jump For Joy
TTITLE2=Jump Back
TTITLE3=Juke
TTITLE4=Right Direction
TTITLE5=Asia Minor
TTITLE6=Hypnotize
TTITLE7=A Taste Of The Devil
TTITLE8=Rattlesnake
TTITLE9=Goodbye Yer Honor
TTITLE10=I Hear You Knockin'
TTITLE11=Key To The Highway
TTITLE12=Battle Of New Orleans
TTITLE13=Sea Cruise
EXTD=
EXTT0=
EXTT1=
EXTT2=
EXTT3=
EXTT4=
EXTT5=
EXTT6=
EXTT7=
EXTT8=
EXTT9=
EXTT10=
EXTT11=
EXTT12=
EXTT13=
PLAYORDER=
